<mxfile host="app.diagrams.net" modified="2022-12-21T20:49:40.484Z" agent="5.0 (Windows NT 10.0; Win64; x64) AppleWebKit/537.36 (KHTML, like Gecko) Chrome/108.0.0.0 Safari/537.36" etag="Jf2iDiHi--d8_-fFxHjL" version="20.7.4" type="github">
  <diagram id="kgpKYQtTHZ0yAKxKKP6v" name="Page-1">
    <mxGraphModel dx="1434" dy="1902" grid="1" gridSize="10" guides="1" tooltips="1" connect="1" arrows="1" fold="1" page="1" pageScale="1" pageWidth="850" pageHeight="1100" math="0" shadow="0">
      <root>
        <mxCell id="0" />
        <mxCell id="1" parent="0" />
        <mxCell id="oMiwy8GMyvpBW_35Fccg-7" value="&lt;b&gt;Task dashboard&lt;/b&gt;" style="text;html=1;align=center;verticalAlign=middle;resizable=0;points=[];autosize=1;strokeColor=none;fillColor=none;fontSize=24;" parent="1" vertex="1">
          <mxGeometry x="305" y="-20" width="210" height="40" as="geometry" />
        </mxCell>
        <mxCell id="oMiwy8GMyvpBW_35Fccg-14" value="&lt;font style=&quot;font-size: 12px;&quot;&gt;Redeem reward&amp;nbsp;&lt;/font&gt;" style="rounded=1;whiteSpace=wrap;html=1;shadow=0;strokeColor=#A680B8;fontSize=24;fillColor=#FFFFFF;" parent="1" vertex="1">
          <mxGeometry x="30" y="80" width="100" height="30" as="geometry" />
        </mxCell>
        <mxCell id="oMiwy8GMyvpBW_35Fccg-22" value="" style="endArrow=classic;html=1;rounded=0;fontSize=12;" parent="1" edge="1">
          <mxGeometry x="-1" y="-70" width="50" height="50" relative="1" as="geometry">
            <mxPoint x="400" y="250" as="sourcePoint" />
            <mxPoint x="400" y="370" as="targetPoint" />
            <Array as="points">
              <mxPoint x="400" y="290" />
              <mxPoint x="400" y="320" />
              <mxPoint x="400" y="360" />
            </Array>
            <mxPoint x="65" y="-70" as="offset" />
          </mxGeometry>
        </mxCell>
        <mxCell id="oMiwy8GMyvpBW_35Fccg-55" value="" style="endArrow=classic;html=1;rounded=0;fontSize=12;entryX=1;entryY=0.5;entryDx=0;entryDy=0;" parent="1" target="qxkSkuOcV4pBAv_Qfa_u-8" edge="1">
          <mxGeometry x="-1" y="-82" width="50" height="50" relative="1" as="geometry">
            <mxPoint x="435.5" y="240" as="sourcePoint" />
            <mxPoint x="510" y="120" as="targetPoint" />
            <Array as="points">
              <mxPoint x="520" y="200" />
              <mxPoint x="520" y="135" />
            </Array>
            <mxPoint x="64" y="-79" as="offset" />
          </mxGeometry>
        </mxCell>
        <mxCell id="qxkSkuOcV4pBAv_Qfa_u-1" value="" style="html=1;verticalAlign=bottom;startArrow=circle;startFill=1;endArrow=open;startSize=6;endSize=8;rounded=0;fontSize=24;" edge="1" parent="1">
          <mxGeometry x="-1" y="45" width="80" relative="1" as="geometry">
            <mxPoint x="394.5" y="50" as="sourcePoint" />
            <mxPoint x="394.5" y="120" as="targetPoint" />
            <mxPoint x="-25" y="-40" as="offset" />
          </mxGeometry>
        </mxCell>
        <mxCell id="qxkSkuOcV4pBAv_Qfa_u-3" value="&lt;span style=&quot;background-color: rgb(251, 251, 251);&quot;&gt;YES&lt;/span&gt;" style="edgeLabel;html=1;align=center;verticalAlign=middle;resizable=0;points=[];fontSize=12;" vertex="1" connectable="0" parent="1">
          <mxGeometry x="400" y="310" as="geometry" />
        </mxCell>
        <mxCell id="qxkSkuOcV4pBAv_Qfa_u-6" value="&lt;font style=&quot;font-size: 13px;&quot;&gt;IsAsignedToTask&lt;/font&gt;" style="rounded=1;whiteSpace=wrap;html=1;shadow=0;strokeColor=#A680B8;fontSize=24;fillColor=#FFFFFF;" vertex="1" parent="1">
          <mxGeometry x="335" y="220" width="120" height="30" as="geometry" />
        </mxCell>
        <mxCell id="qxkSkuOcV4pBAv_Qfa_u-7" value="&lt;span style=&quot;background-color: rgb(251, 251, 251);&quot;&gt;NO&lt;/span&gt;" style="edgeLabel;html=1;align=center;verticalAlign=middle;resizable=0;points=[];fontSize=12;" vertex="1" connectable="0" parent="1">
          <mxGeometry x="515" y="170" as="geometry">
            <mxPoint x="-1" y="-5" as="offset" />
          </mxGeometry>
        </mxCell>
        <mxCell id="qxkSkuOcV4pBAv_Qfa_u-8" value="&lt;font style=&quot;font-size: 12px;&quot;&gt;task selector&lt;/font&gt;" style="rounded=1;whiteSpace=wrap;html=1;shadow=0;strokeColor=#A680B8;fontSize=24;fillColor=#FFFFFF;" vertex="1" parent="1">
          <mxGeometry x="347.5" y="120" width="95" height="30" as="geometry" />
        </mxCell>
        <mxCell id="qxkSkuOcV4pBAv_Qfa_u-24" value="" style="endArrow=classic;html=1;rounded=0;fontSize=12;exitX=0.5;exitY=1;exitDx=0;exitDy=0;" edge="1" parent="1">
          <mxGeometry width="50" height="50" relative="1" as="geometry">
            <mxPoint x="394.4" y="152.5" as="sourcePoint" />
            <mxPoint x="396" y="220" as="targetPoint" />
          </mxGeometry>
        </mxCell>
        <mxCell id="qxkSkuOcV4pBAv_Qfa_u-25" value="&lt;span style=&quot;background-color: rgb(251, 251, 251);&quot;&gt;Initiate Task Creation&lt;/span&gt;" style="edgeLabel;html=1;align=center;verticalAlign=middle;resizable=0;points=[];fontSize=12;" vertex="1" connectable="0" parent="qxkSkuOcV4pBAv_Qfa_u-24">
          <mxGeometry x="-0.2795" y="1" relative="1" as="geometry">
            <mxPoint as="offset" />
          </mxGeometry>
        </mxCell>
        <mxCell id="qxkSkuOcV4pBAv_Qfa_u-28" value="&lt;font style=&quot;font-size: 13px;&quot;&gt;CompleteTask&lt;/font&gt;" style="rounded=1;whiteSpace=wrap;html=1;shadow=0;strokeColor=#A680B8;fontSize=24;fillColor=#FFFFFF;" vertex="1" parent="1">
          <mxGeometry x="340" y="370" width="120" height="30" as="geometry" />
        </mxCell>
        <mxCell id="qxkSkuOcV4pBAv_Qfa_u-29" value="" style="endArrow=classic;html=1;rounded=0;fontSize=12;exitX=0;exitY=0.5;exitDx=0;exitDy=0;entryX=1;entryY=0.5;entryDx=0;entryDy=0;" edge="1" parent="1" source="qxkSkuOcV4pBAv_Qfa_u-28" target="qxkSkuOcV4pBAv_Qfa_u-37">
          <mxGeometry x="-0.5674" y="-90" width="50" height="50" relative="1" as="geometry">
            <mxPoint x="270" y="317.5" as="sourcePoint" />
            <mxPoint x="271.1999999999998" y="452.5" as="targetPoint" />
            <mxPoint as="offset" />
          </mxGeometry>
        </mxCell>
        <mxCell id="qxkSkuOcV4pBAv_Qfa_u-31" value="" style="endArrow=classic;html=1;rounded=0;fontSize=12;exitX=0.5;exitY=1;exitDx=0;exitDy=0;" edge="1" parent="1">
          <mxGeometry width="50" height="50" relative="1" as="geometry">
            <mxPoint x="460" y="384" as="sourcePoint" />
            <mxPoint x="580" y="384" as="targetPoint" />
          </mxGeometry>
        </mxCell>
        <mxCell id="qxkSkuOcV4pBAv_Qfa_u-33" value="&lt;span style=&quot;background-color: rgb(251, 251, 251);&quot;&gt;NO&lt;/span&gt;" style="edgeLabel;html=1;align=center;verticalAlign=middle;resizable=0;points=[];fontSize=12;" vertex="1" connectable="0" parent="1">
          <mxGeometry x="550" y="385" as="geometry">
            <mxPoint x="-36" y="-1" as="offset" />
          </mxGeometry>
        </mxCell>
        <mxCell id="qxkSkuOcV4pBAv_Qfa_u-34" value="&lt;font style=&quot;font-size: 12px;&quot;&gt;it expires&lt;/font&gt;" style="rounded=1;whiteSpace=wrap;html=1;shadow=0;strokeColor=#A680B8;fontSize=24;fillColor=#FFFFFF;" vertex="1" parent="1">
          <mxGeometry x="580" y="370" width="95" height="30" as="geometry" />
        </mxCell>
        <mxCell id="qxkSkuOcV4pBAv_Qfa_u-36" value="&lt;span style=&quot;background-color: rgb(251, 251, 251);&quot;&gt;YES&lt;/span&gt;" style="edgeLabel;html=1;align=center;verticalAlign=middle;resizable=0;points=[];fontSize=12;" vertex="1" connectable="0" parent="1">
          <mxGeometry x="190" y="380" as="geometry">
            <mxPoint x="70" y="7" as="offset" />
          </mxGeometry>
        </mxCell>
        <mxCell id="qxkSkuOcV4pBAv_Qfa_u-38" style="edgeStyle=orthogonalEdgeStyle;rounded=0;orthogonalLoop=1;jettySize=auto;html=1;exitX=0.25;exitY=0;exitDx=0;exitDy=0;fontSize=13;entryX=0.5;entryY=1;entryDx=0;entryDy=0;" edge="1" parent="1" source="qxkSkuOcV4pBAv_Qfa_u-37" target="oMiwy8GMyvpBW_35Fccg-14">
          <mxGeometry relative="1" as="geometry">
            <mxPoint x="100" y="230" as="targetPoint" />
            <Array as="points">
              <mxPoint x="80" y="370" />
            </Array>
          </mxGeometry>
        </mxCell>
        <mxCell id="qxkSkuOcV4pBAv_Qfa_u-39" style="edgeStyle=orthogonalEdgeStyle;rounded=0;orthogonalLoop=1;jettySize=auto;html=1;exitX=0.75;exitY=0;exitDx=0;exitDy=0;fontSize=13;entryX=0;entryY=0.5;entryDx=0;entryDy=0;" edge="1" parent="1" source="qxkSkuOcV4pBAv_Qfa_u-37" target="qxkSkuOcV4pBAv_Qfa_u-8">
          <mxGeometry relative="1" as="geometry">
            <mxPoint x="290" y="130" as="targetPoint" />
            <Array as="points">
              <mxPoint x="160" y="135" />
            </Array>
          </mxGeometry>
        </mxCell>
        <mxCell id="qxkSkuOcV4pBAv_Qfa_u-37" value="&lt;font style=&quot;font-size: 13px;&quot;&gt;GetsPointsAndBuys&lt;/font&gt;" style="rounded=1;whiteSpace=wrap;html=1;shadow=0;strokeColor=#A680B8;fontSize=24;fillColor=#FFFFFF;" vertex="1" parent="1">
          <mxGeometry x="70" y="370" width="120" height="30" as="geometry" />
        </mxCell>
        <mxCell id="qxkSkuOcV4pBAv_Qfa_u-40" value="&lt;span style=&quot;background-color: rgb(251, 251, 251);&quot;&gt;NO&lt;/span&gt;" style="edgeLabel;html=1;align=center;verticalAlign=middle;resizable=0;points=[];fontSize=12;" vertex="1" connectable="0" parent="1">
          <mxGeometry x="200" y="250" as="geometry">
            <mxPoint x="-36" y="-1" as="offset" />
          </mxGeometry>
        </mxCell>
        <mxCell id="qxkSkuOcV4pBAv_Qfa_u-41" value="" style="endArrow=classic;html=1;rounded=0;fontSize=12;exitX=1;exitY=0.5;exitDx=0;exitDy=0;entryX=0.121;entryY=-0.033;entryDx=0;entryDy=0;entryPerimeter=0;" edge="1" parent="1" source="oMiwy8GMyvpBW_35Fccg-14" target="qxkSkuOcV4pBAv_Qfa_u-8">
          <mxGeometry width="50" height="50" relative="1" as="geometry">
            <mxPoint x="180" y="100" as="sourcePoint" />
            <mxPoint x="360" y="90" as="targetPoint" />
            <Array as="points">
              <mxPoint x="290" y="95" />
            </Array>
          </mxGeometry>
        </mxCell>
        <mxCell id="qxkSkuOcV4pBAv_Qfa_u-42" value="&lt;span style=&quot;background-color: rgb(251, 251, 251);&quot;&gt;YES&lt;/span&gt;" style="edgeLabel;html=1;align=center;verticalAlign=middle;resizable=0;points=[];fontSize=12;" vertex="1" connectable="0" parent="1">
          <mxGeometry x="10" y="235" as="geometry">
            <mxPoint x="70" y="7" as="offset" />
          </mxGeometry>
        </mxCell>
      </root>
    </mxGraphModel>
  </diagram>
</mxfile>
